<?xml version="1.0" encoding="utf-8"?>
<!DOCTYPE svg PUBLIC "-//W3C//DTD SVG 20010904//EN" "http://www.w3.org/TR/2001/REC-SVG-20010904/DTD/svg10.dtd">
<svg version="1.0" width="96pt" height="96pt" viewBox="0 0 96 96" preserveAspectRatio="xMidYMid meet" xmlns="http://www.w3.org/2000/svg">
  <g transform="translate(0,96)scale(.075,.075)" fill="#D97AFF">
    <path id="path1" d="M 500 -920 l -20 0 0 20 0 20 -20 0 -20 0 0 20 0 20 -20 0 -20 0 0 80 0 80 -40 0 -40 0 0 -20 0 -20 -20 0 -20 0 0 40 0 40 -20 0 -20 0 0 40 0 40 -20 0 -20 0 0 20 0 20 -40 0 -40 0 0 20 0 20 -20 0 -20 0 0 40 0 40 -20 0 -20 0 0 60 0 60 20 0 20 0 0 40 0 40 20 0 20 0 0 20 0 20 40 0 40 0 0 20 0 20 40 0 40 0 0 20 0 20 80 0 80 0 0 20 0 20 200 0 200 0 0 -20 0 -20 80 0 80 0 0 -20 0 -20 40 0 40 0 0 -20 0 -20 40 0 40 0 0 -20 0 -20 20 0 20 0 0 -40 0 -40 20 0 20 0 0 -60 0 -60 -20 0 -20 0 0 -40 0 -40 -20 0 -20 0 0 -20 0 -20 -40 0 -40 0 0 -20 0 -20 -40 0 -40 0 0 -20 0 -20 -80 0 -80 0 0 -20 0 -20 -20 0 -20 0 0 -20 0 -20 -20 0 -20 0 0 -20 0 -20 -20 0 -20 0 0 -20 0 -20 -20 0 -20 0 0 -20 0 -20 -20 0 -20 0 0 20 0 20 -20 0 -20 0 0 -40 0 -40 -20 0 -20 0 0 -20 0 -20 -20 0 -20 0 0 -20 0 -20 -20 0 z m 120 200 l 60 0 0 20 0 20 20 0 20 0 0 20 0 20 20 0 20 0 0 20 0 20 -60 0 -60 0 0 -20 0 -20 -40 0 -40 0 0 -40 0 -40 60 0 z m -200 40 l 20 0 0 20 0 20 -20 0 -20 0 0 -20 0 -20 20 0 z m -100 40 l 40 0 0 20 0 20 80 0 80 0 0 20 0 20 80 0 80 0 0 20 0 20 80 0 80 0 0 20 0 20 60 0 60 0 0 60 0 60 -40 0 -40 0 0 -20 0 -20 -80 0 -80 0 0 -20 0 -20 -80 0 -80 0 0 -20 0 -20 -80 0 -80 0 0 -20 0 -20 -60 0 -60 0 0 -60 0 -60 40 0 z m 0 160 l 40 0 0 20 0 20 80 0 80 0 0 20 0 20 80 0 80 0 0 20 0 20 80 0 80 0 0 20 0 20 60 0 60 0 0 60 0 60 -60 0 -60 0 0 -20 0 -20 -80 0 -80 0 0 -20 0 -20 -80 0 -80 0 0 -20 0 -20 -80 0 -80 0 0 -20 0 -20 -40 0 -40 0 0 -60 0 -60 40 0 z " />
  </g>
</svg>